<svg width="32" height="36" viewBox="0 0 32 36" fill="none" xmlns="http://www.w3.org/2000/svg">
<path fill-rule="evenodd" clip-rule="evenodd" d="M15.3365 23.9584C14.5413 23.8258 13.803 23.458 13.2149 22.9018C12.6268 22.3456 12.2153 21.6258 12.0325 20.8336C11.8497 20.0413 11.9038 19.2122 12.188 18.4509C12.4721 17.6897 12.9736 17.0306 13.6289 16.5571C14.2842 16.0835 15.0639 15.8167 15.8695 15.7904C16.675 15.7641 17.4702 15.9795 18.1545 16.4094C18.8387 16.8392 19.3813 17.4642 19.7136 18.2053C20.0459 18.9464 20.1529 19.7703 20.0212 20.5729C19.8425 21.6476 19.2493 22.6072 18.3713 23.2417C17.4934 23.8762 16.4022 24.1339 15.3365 23.9584ZM13.2063 0.027478C13.6971 0.112658 14.1347 0.390208 14.4236 0.799629C14.7125 1.20905 14.8294 1.71714 14.7487 2.21316C14.1742 5.63888 13.5819 9.09136 13.0074 12.5438C14.1331 12.0774 15.3508 11.8811 16.5645 11.9703C17.7782 12.0596 18.9548 12.4319 20.0016 13.0581C21.0485 13.6843 21.9371 14.5471 22.5974 15.5788C23.2577 16.6105 23.6718 17.7827 23.8069 19.0033C23.9421 20.2239 23.7947 21.4595 23.3763 22.6129C22.958 23.7662 22.2801 24.8058 21.396 25.6497C20.5119 26.4937 19.4458 27.1191 18.2816 27.4765C17.1174 27.834 15.8868 27.9139 14.6868 27.7098C12.9913 27.4306 11.4363 26.5894 10.2673 25.3189C6.28966 28.8874 2.37393 26.9604 0.986187 24.4268C-0.220353 22.2144 -0.131962 19.6228 0.265798 17.1828C0.656454 14.8642 1.54534 12.66 2.87003 10.725C4.19472 8.79004 5.92309 7.17126 7.93374 5.98234L6.88188 12.2271C4.91518 14.6046 3.18713 19.2302 4.37599 22.2277C4.97705 23.731 7.38129 23.0485 7.55807 22.0627C8.70716 15.1845 9.87393 8.43565 11.0274 1.57976C11.1127 1.08246 11.3901 0.63967 11.7986 0.348623C12.2072 0.0575757 12.7134 -0.0579281 13.2063 0.027478ZM16.7773 3.7922C17.4112 3.82305 18.0429 3.89156 18.6689 3.99739C21.11 4.40929 23.4227 5.38841 25.4245 6.85743C27.4262 8.32644 29.0621 10.2451 30.203 12.4618C31.3438 14.6786 31.9583 17.1327 31.998 19.6303C32.0376 22.1279 31.5013 24.6007 30.4314 26.8532C29.3615 29.1056 27.7874 31.0762 25.8333 32.6092C23.8792 34.1422 21.5987 35.1956 19.1719 35.6862C16.7451 36.1768 14.2386 36.0912 11.8502 35.4361C9.46184 34.781 7.25711 33.5744 5.41017 31.9116C3.44346 30.0159 6.29408 27.3262 8.24311 28.9186C9.62579 30.1328 11.2684 31.0071 13.0422 31.4729C14.8159 31.9388 16.6724 31.9834 18.4661 31.6035C20.2598 31.2235 21.9419 30.4291 23.3804 29.2828C24.8188 28.1365 25.9745 26.6693 26.7567 24.9965C27.539 23.3236 27.9265 21.4906 27.889 19.6412C27.8514 17.7918 27.3897 15.9763 26.5402 14.3372C25.6907 12.6982 24.4764 11.2801 22.9926 10.1942C21.5088 9.10835 19.7959 8.38428 17.9882 8.07881C17.3646 7.97129 16.7337 7.91165 16.1011 7.90039L16.7773 3.7922Z" fill="#FFB72C"/>
</svg>
