<svg width="208" height="54" viewBox="0 0 208 54" fill="none" xmlns="http://www.w3.org/2000/svg">
<g clip-path="url(#clip0)">
<path fill-rule="evenodd" clip-rule="evenodd" d="M23.1803 35.876C21.9887 35.6784 20.8822 35.1307 20.0009 34.3023C19.1196 33.4738 18.503 32.4018 18.2291 31.2218C17.9552 30.0418 18.0362 28.8068 18.4621 27.673C18.8879 26.5392 19.6393 25.5576 20.6213 24.8522C21.6033 24.1468 22.7718 23.7494 23.979 23.7103C25.1861 23.6711 26.3778 23.992 27.4031 24.6322C28.4285 25.2725 29.2416 26.2034 29.7396 27.3072C30.2375 28.411 30.398 29.6382 30.2006 30.8335C29.9328 32.4343 29.0438 33.8635 27.7281 34.8085C26.4125 35.7535 24.7773 36.1373 23.1803 35.876ZM19.988 0.232577C20.7236 0.359446 21.3793 0.772837 21.8123 1.38264C22.2452 1.99244 22.4203 2.74921 22.2994 3.48799C21.4385 8.59035 20.551 13.7326 19.69 18.8748C21.377 18.1801 23.2017 17.8877 25.0205 18.0206C26.8392 18.1535 28.6024 18.7081 30.1712 19.6408C31.74 20.5734 33.0716 21.8586 34.0611 23.3952C35.0507 24.9317 35.6711 26.6777 35.8737 28.4957C36.0762 30.3137 35.8553 32.1541 35.2284 33.8719C34.6015 35.5897 33.5856 37.1381 32.2607 38.3951C30.9359 39.6522 29.3383 40.5836 27.5936 41.116C25.849 41.6484 24.005 41.7673 22.2067 41.4634C19.6659 41.0476 17.3356 39.7947 15.5838 37.9024C9.62313 43.2173 3.75521 40.3472 1.67561 36.5736C-0.132457 33.2783 1.77324e-06 29.4184 0.596066 25.7843C1.18148 22.3308 2.51353 19.0478 4.49864 16.1658C6.48376 13.2838 9.07381 10.8727 12.0869 9.10192L10.5106 18.4031C7.5634 21.9442 4.97383 28.8337 6.7554 33.2983C7.65612 35.5372 11.259 34.5207 11.5239 33.0525C13.2459 22.8079 14.9943 12.756 16.7229 2.54458C16.8508 1.8039 17.2664 1.14439 17.8786 0.710899C18.4908 0.277405 19.2495 0.105371 19.988 0.232577ZM25.3394 5.83986C26.2894 5.88581 27.2359 5.98786 28.174 6.14547C31.8321 6.75897 35.2979 8.21731 38.2976 10.4053C41.2974 12.5933 43.7488 15.451 45.4584 18.7527C47.168 22.0544 48.0889 25.7096 48.1483 29.4296C48.2077 33.1496 47.4041 36.8326 45.8008 40.1875C44.1975 43.5424 41.8385 46.4774 38.9102 48.7607C35.9819 51.044 32.5644 52.6129 28.9278 53.3437C25.2912 54.0744 21.535 53.9469 17.9559 52.9712C14.3768 51.9955 11.0729 50.1984 8.30517 47.7218C5.35796 44.8982 9.62976 40.892 12.5505 43.2638C14.6225 45.0723 17.0841 46.3745 19.7421 47.0684C22.4001 47.7622 25.1823 47.8287 27.8702 47.2627C30.5582 46.6968 33.0788 45.5137 35.2344 43.8063C37.39 42.0989 39.1218 39.9137 40.2941 37.4221C41.4664 34.9305 42.0471 32.2004 41.9908 29.4458C41.9345 26.6912 41.2427 23.9872 39.9696 21.5459C38.6965 19.1046 36.8768 16.9925 34.6533 15.3752C32.4298 13.7579 29.8629 12.6794 27.1541 12.2245C26.2194 12.0643 25.2741 11.9755 24.3261 11.9587L25.3394 5.83986Z" fill="#FFB72C"/>
<path fill-rule="evenodd" clip-rule="evenodd" d="M75.0315 22.19C76.206 22.1748 77.3727 22.3845 78.4688 22.8079C79.4721 23.1902 80.3596 23.8265 81.0451 24.6549C81.7571 25.5569 82.2451 26.6158 82.4691 27.7442C82.7505 29.1663 82.764 30.6288 82.5088 32.0559C82.293 33.5721 81.8298 35.0423 81.1379 36.4076C80.5099 37.5936 79.6625 38.6488 78.641 39.5168C77.6385 40.3709 76.4769 41.0167 75.2236 41.4169C73.8803 41.8646 72.4732 42.089 71.0577 42.0813C69.7394 42.1136 68.4251 41.9227 67.1701 41.5166C66.2335 41.2202 65.3519 40.7713 64.5606 40.1878C64.1212 39.8774 63.766 39.4618 63.5275 38.9787C63.327 38.484 63.2741 37.9416 63.3751 37.4174L66.6866 15.7789C66.9964 15.6768 67.3161 15.6077 67.6403 15.5729C68.0934 15.4993 68.5524 15.4682 69.0113 15.4799C69.7118 15.413 70.4138 15.5914 70.9981 15.9848C71.3955 16.3237 71.5081 16.9282 71.3756 17.7919L70.5478 23.253C71.1936 22.9316 71.8734 22.6843 72.5744 22.5156C73.3766 22.3072 74.2029 22.2067 75.0315 22.2166V22.19ZM73.5678 26.1763C72.8891 26.1718 72.2155 26.2934 71.581 26.535C70.9998 26.7422 70.4407 27.0071 69.912 27.3256L68.3887 37.1915C68.8042 37.4462 69.249 37.6492 69.7133 37.7961C70.352 38.0159 71.0253 38.1172 71.7002 38.0951C72.3956 38.1122 73.0873 37.9893 73.7346 37.7337C74.3818 37.4781 74.9715 37.0949 75.4686 36.6069C76.5239 35.6325 77.1994 34.1266 77.4952 32.0892C77.8198 30.0363 77.6078 28.5481 76.8793 27.5914C76.491 27.1154 75.9954 26.7389 75.4334 26.4928C74.8715 26.2468 74.2593 26.1383 73.6473 26.1763H73.5678ZM88.1383 22.9341L89.092 22.7282C89.5295 22.6528 89.9727 22.6151 90.4166 22.6152C91.1181 22.548 91.821 22.729 92.4035 23.1268C92.6102 23.3773 92.7527 23.6748 92.8185 23.9933C92.8843 24.3117 92.8714 24.6415 92.781 24.9538L90.2444 41.4501L89.2907 41.6561C88.8532 41.7314 88.41 41.7692 87.9661 41.769C87.2654 41.8376 86.5628 41.6591 85.9792 41.2641C85.7725 41.0136 85.63 40.7161 85.5642 40.3977C85.4984 40.0792 85.5113 39.7494 85.6017 39.4371L88.1383 22.9341ZM88.6284 17.2139C88.7412 16.4453 89.1356 15.7466 89.7344 15.254C90.3338 14.7194 91.1115 14.4301 91.9134 14.4435C92.2761 14.4204 92.6393 14.4815 92.9748 14.6221C93.3102 14.7626 93.6087 14.9789 93.8473 15.254C94.0631 15.5269 94.218 15.8431 94.3014 16.1813C94.3848 16.5194 94.3948 16.8716 94.3307 17.2139C94.2134 17.9857 93.8289 18.6913 93.2446 19.207C92.6432 19.7383 91.8669 20.0271 91.0656 20.0176C90.7005 20.0359 90.3358 19.9727 89.998 19.8326C89.6601 19.6924 89.3575 19.4787 89.1119 19.207C88.8865 18.933 88.7258 18.6113 88.6421 18.2661C88.5584 17.9209 88.5537 17.5612 88.6284 17.2139ZM109.616 29.4516C109.782 28.3222 109.617 27.4585 109.034 26.9669C108.333 26.3926 107.439 26.1097 106.537 26.1763C105.184 26.1519 103.847 26.4768 102.656 27.1197L100.464 41.4169L99.4834 41.6229C99.0459 41.6986 98.6028 41.7364 98.1588 41.7358C97.4581 41.8056 96.7551 41.6269 96.1719 41.2309C95.9576 40.9846 95.8088 40.688 95.7393 40.3686C95.6698 40.0492 95.682 39.7173 95.7746 39.4039L97.7283 26.7277C97.7938 26.1662 98.0063 25.6321 98.3443 25.1797C98.7407 24.7269 99.211 24.3449 99.7351 24.0503C100.751 23.4549 101.846 23.0075 102.987 22.7215C104.37 22.358 105.796 22.1815 107.226 22.1967C109.928 22.1967 111.941 22.7946 113.233 23.9838C114.524 25.1731 115.001 26.9403 114.643 29.2589L112.782 41.4236C112.577 41.4767 112.259 41.5365 111.829 41.6295C111.391 41.7049 110.948 41.7427 110.504 41.7425C109.803 41.8088 109.102 41.6305 108.517 41.2375C108.31 40.987 108.168 40.6895 108.102 40.3711C108.036 40.0526 108.049 39.7228 108.14 39.4105L109.616 29.4516ZM130.002 39.8623C129.377 40.1367 128.73 40.359 128.068 40.5267C127.264 40.722 126.438 40.8157 125.611 40.8057C124.502 40.8187 123.399 40.6481 122.346 40.3008C121.377 40.0078 120.506 39.4541 119.829 38.6996C119.106 37.8904 118.612 36.9017 118.399 35.8362C118.112 34.4278 118.101 32.977 118.365 31.5643C118.565 30.1455 119.013 28.7734 119.69 27.5116C120.288 26.3862 121.102 25.3906 122.085 24.5822C123.068 23.7738 124.201 23.1685 125.419 22.8013C126.725 22.3963 128.085 22.1947 129.452 22.2033C130.698 22.1853 131.939 22.3555 133.135 22.7083C134.04 22.9715 134.896 23.3799 135.671 23.9174C136.069 24.1948 136.398 24.5609 136.631 24.987C136.853 25.4567 136.918 25.9855 136.817 26.4952L134.446 41.696C134.292 42.9322 133.862 44.1176 133.188 45.164C132.581 46.117 131.783 46.9318 130.843 47.5557C129.875 48.1891 128.807 48.654 127.684 48.9309C126.46 49.2201 125.206 49.365 123.949 49.3628C122.767 49.3802 121.589 49.253 120.438 48.9841C119.694 48.8105 118.98 48.5261 118.319 48.1403C117.954 47.9098 117.667 47.5739 117.495 47.1767C117.324 46.7795 117.276 46.3396 117.359 45.9147C117.422 45.4377 117.597 44.9824 117.869 44.586C118.098 44.2479 118.399 43.9644 118.75 43.7555C119.469 44.2239 120.246 44.5968 121.061 44.865C122.036 45.1832 123.056 45.3424 124.081 45.3367C125.422 45.3948 126.753 45.0823 127.929 44.4332C128.427 44.1087 128.846 43.6766 129.155 43.1684C129.465 42.6603 129.657 42.089 129.717 41.4966L130.002 39.8623ZM127.022 36.9391C127.698 36.9561 128.371 36.848 129.008 36.6202C129.534 36.4317 130.039 36.1867 130.512 35.8894L131.883 26.9602C131.505 26.7252 131.1 26.5356 130.677 26.3955C130.123 26.2302 129.547 26.154 128.969 26.1696C127.621 26.1359 126.31 26.61 125.293 27.4984C124.162 28.5786 123.457 30.0315 123.306 31.5909C123.157 32.4221 123.136 33.2715 123.247 34.1088C123.337 34.7119 123.576 35.2827 123.942 35.7698C124.28 36.2008 124.743 36.5165 125.267 36.6733C125.823 36.8642 126.407 36.9585 126.995 36.9523L127.022 36.9391ZM159.255 32.1224C159.04 33.5605 158.592 34.9539 157.931 36.2481C157.31 37.4321 156.485 38.4961 155.494 39.3906C154.525 40.2589 153.402 40.9352 152.182 41.3837C150.873 41.841 149.495 42.0658 148.109 42.0481C146.789 42.079 145.476 41.8534 144.241 41.3837C143.179 40.9643 142.241 40.278 141.519 39.3906C140.785 38.4877 140.276 37.4216 140.036 36.2813C139.767 34.9024 139.756 33.4855 140.003 32.1024C140.201 30.6602 140.649 29.264 141.327 27.9767C142.55 25.6067 144.623 23.7904 147.129 22.8943C148.42 22.4172 149.787 22.1808 151.162 22.1967C152.467 22.1687 153.764 22.4037 154.977 22.8876C156.041 23.3118 156.981 23.9971 157.712 24.8807C158.463 25.7836 158.979 26.8586 159.216 28.0099C159.483 29.3569 159.503 30.7415 159.275 32.0958L159.255 32.1224ZM150.526 26.143C149.851 26.1291 149.181 26.2613 148.562 26.5308C147.942 26.8002 147.388 27.2005 146.937 27.7043C145.878 28.9429 145.218 30.4738 145.043 32.0958C144.745 34.0158 144.93 35.504 145.566 36.5205C145.901 37.0381 146.37 37.4548 146.923 37.7262C147.476 37.9976 148.092 38.1136 148.705 38.0618C149.385 38.0771 150.061 37.9456 150.686 37.6762C151.311 37.4069 151.871 37.0059 152.328 36.5006C153.376 35.2541 154.022 33.7183 154.182 32.0958C154.487 30.209 154.301 28.7407 153.639 27.7043C153.314 27.1868 152.854 26.768 152.309 26.4929C151.764 26.2179 151.155 26.0969 150.546 26.143H150.526ZM167.117 41.4236L166.163 41.6295C165.726 41.705 165.283 41.7427 164.839 41.7425C164.138 41.8133 163.434 41.6346 162.852 41.2375C162.645 40.987 162.502 40.6895 162.437 40.3711C162.371 40.0526 162.384 39.7228 162.474 39.4105L166.097 15.7922C166.409 15.6909 166.731 15.6219 167.057 15.5862C167.495 15.5139 167.938 15.4828 168.382 15.4932C169.082 15.4285 169.784 15.6067 170.369 15.9981C170.74 16.3369 170.852 16.9415 170.726 17.8052L167.117 41.4236ZM180.184 38.2612C180.898 38.2727 181.612 38.2014 182.31 38.0486C182.824 37.9568 183.318 37.7794 183.774 37.5237L184.436 33.1389L180.568 33.4976C179.692 33.5409 178.835 33.7672 178.051 34.162C177.752 34.3439 177.498 34.5937 177.312 34.8913C177.126 35.189 177.012 35.5262 176.978 35.8761C176.906 36.1954 176.921 36.5285 177.023 36.8397C177.124 37.151 177.308 37.4287 177.555 37.6433C178.344 38.1407 179.276 38.3604 180.204 38.2678L180.184 38.2612ZM182.495 22.1967C185.065 22.1967 187.039 22.7415 188.41 23.851C189.781 24.9605 190.271 26.6745 189.926 28.9932L188.522 38.1084C188.473 38.6705 188.24 39.2006 187.86 39.6165C187.461 39.9964 187.016 40.3245 186.535 40.5931C185.602 41.0903 184.603 41.4526 183.568 41.6694C182.284 41.9414 180.974 42.0728 179.661 42.0614C177.012 42.0614 175.025 41.5542 173.7 40.5399C172.375 39.5235 171.819 37.9954 172.124 35.9824C172.216 35.1874 172.466 34.4191 172.86 33.7229C173.254 33.0268 173.782 32.417 174.415 31.9297C175.917 30.9041 177.668 30.3091 179.482 30.209L184.966 29.6443L185.078 28.9799C185.187 28.5773 185.173 28.1514 185.04 27.7564C184.907 27.3614 184.66 27.0149 184.33 26.7609C183.452 26.2222 182.429 25.9714 181.403 26.0434C180.371 26.0469 179.344 26.174 178.343 26.4221C177.403 26.6547 176.485 26.9704 175.601 27.3655C175.345 27.126 175.14 26.8366 174.998 26.5151C174.863 26.141 174.824 25.7389 174.886 25.3458C174.949 24.8718 175.152 24.4276 175.468 24.0702C175.837 23.6721 176.29 23.3612 176.793 23.16C177.668 22.8452 178.574 22.6226 179.495 22.4957C180.482 22.3283 181.481 22.2461 182.482 22.2498L182.495 22.1967ZM197.887 41.4236L196.913 41.6295C196.476 41.7063 196.033 41.7441 195.589 41.7425C194.888 41.8094 194.186 41.631 193.602 41.2375C193.393 40.9882 193.248 40.6913 193.18 40.3728C193.112 40.0543 193.123 39.7239 193.211 39.4105L195.145 26.9004C195.216 26.2599 195.469 25.6533 195.874 25.1531C196.318 24.6391 196.852 24.2112 197.45 23.8908C198.459 23.3504 199.531 22.9397 200.642 22.6684C201.941 22.34 203.277 22.1814 204.616 22.1967C207.113 22.1967 208.239 22.9674 208.014 24.5286C207.955 24.8896 207.841 25.2393 207.676 25.565C207.536 25.8534 207.365 26.1253 207.166 26.3756C205.553 26.0881 203.899 26.1333 202.305 26.5085C201.543 26.6849 200.805 26.9503 200.106 27.2991L197.887 41.4236Z" fill="white"/>
</g>
<defs>
<clipPath id="clip0">
<rect width="208" height="54" fill="white"/>
</clipPath>
</defs>
</svg>
